# xmcd
#
# Track frame offsets:
# 150
# 17615
# 33388
# 54427
# 74929
# 92573
# 109205
# 131920
# 147785
# 160051
# 172991
# 186741
# 200432
#
# Disc length: 2957 seconds
#
#
# Revision: 0
# Processed by: cddbd v1.5.1PL0 Copyright (c) Steve Scherf et al.
# Submitted via: FreeRIP 2.70 
#
DISCID=be0b8b0d
DTITLE=Kevin Mark - Rolling The Dice
DYEAR=2003
DGENRE=blues
TTITLE0=So Blue Without You
TTITLE1=Mean Mistreater
TTITLE2=Big Blue Cadillac
TTITLE3=Cold Hearted Woman
TTITLE4=I'm So Broke
TTITLE5=Let's Do It Again
TTITLE6=Lying In The Bed I Made
TTITLE7=She's Murder
TTITLE8=Sweet Sugar Mama
TTITLE9=Bad Girl
TTITLE10=You're So Mean
TTITLE11=I Want You To Be My Baby
TTITLE12=Searching For My Baby
EXTD=Bluesfestradio.com
EXTT0=
EXTT1=
EXTT2=
EXTT3=
EXTT4=
EXTT5=
EXTT6=
EXTT7=
EXTT8=
EXTT9=
EXTT10=
EXTT11=
EXTT12=
PLAYORDER=
